<svg xmlns="http://www.w3.org/2000/svg" xmlns:xlink="http://www.w3.org/1999/xlink" width="100" height="100" viewBox="0,0,100,100"><g style="fill:black;stroke:black;stroke-linecap:round;stroke-linejoin:round;stroke-width:2"><path transform="translate(50,50)rotate(90)" d="M-41,0 a41,16 0 0 0 82,0 a41,16 0 0 0 -82,0M-5,0 a1,1 0 0 1 10,0 a1,1 0 0 1 -10,0" style="stroke:none"></path><path transform="translate(50,50)rotate(30)" d="M-41,0 a41,16 0 0 1 82,0 a41,16 0 0 1 -82,0M-8,0 a1,1 0 0 0 16,0 a1,1 0 0 0 -16,0M-39,9 a1,1 0 0 0 12,0 a1,1 0 0 0 -12,0M-37,9 a1,1 0 0 1 8,0 a1,1 0 0 1 -8,0M39,-9 a1,1 0 0 0 -12,0 a1,1 0 0 0 12,0M37,-9 a1,1 0 0 1 -8,0 a1,1 0 0 1 8,0" style="stroke:none"></path><path transform="translate(50,50) rotate(-30)" d="M-41,0 a41,16 0 0 0 82,0 a41,16 0 0 0 -82,0M-8,0 a1,1 0 0 1 16,0 a1,1 0 0 1 -16,0" style="stroke:none"></path></g></svg>