<svg xmlns="http://www.w3.org/2000/svg" xmlns:xlink="http://www.w3.org/1999/xlink" width="100" height="100" viewBox="0,0,100,100"><g style="stroke:black;stroke-width:2;fill:transparent"><g id="left-bottom"><circle cx="30" cy="52" r="3"></circle><circle cx="8" cy="92" r="4" style="stroke-width:3"></circle><path d="M27,52 h-15 a 4,4 0 0 0 -4,4 v31"></path></g><g id="left-top"><circle cx="30" cy="40" r="3"></circle><circle cx="8" cy="40" r="4" style="stroke-width:3"></circle><path d="M27,40 h-15"></path></g><g id="bottom-left"><circle cx="45" cy="65" r="3"></circle><circle cx="28" cy="84" r="4" style="stroke-width:3"></circle><path d="M42,65 h-10 a4,4 0 0 0 -4,4 v10"></path></g><g id="bottom-right"><circle cx="57" cy="65" r="3"></circle><circle cx="75" cy="80" r="4" style="stroke-width:3"></circle><path d="M60,65 h11 a4,4 0 0 1 4,4 v8"></path></g><g id="right-bottom"><circle cx="72" cy="52" r="3"></circle><circle cx="92" cy="58" r="4" style="stroke-width:3"></circle><path d="M75,52 h10 a8,8 0 0 1 4,2"></path></g><g id="right-top"><circle cx="72" cy="40" r="3"></circle><circle cx="90" cy="40" r="4" style="stroke-width:3"></circle><path d="M75,40 h10"></path></g><g id="top-right"><circle cx="56" cy="25" r="3"></circle><circle cx="56" cy="8" r="4" style="stroke-width:3"></circle><path d="M56,12 v10"></path></g><g id="top-left"><circle cx="45" cy="25" r="3"></circle><circle cx="30" cy="8" r="4" style="stroke-width:3"></circle><path d="M35,8 h6 a4,4 0 0 1 4,4 v10"></path></g><rect x="36" y="31" width="28" height="28" rx="8" ry="8" fill=""></rect></g></svg>